<svg xmlns="http://www.w3.org/2000/svg" width="48" height="48" viewBox="0 0 48 48">
  <g id="profile_purchase" transform="translate(-101 -304)">
    <g id="Group_351" data-name="Group 351" transform="translate(3 0)">
      <circle id="Ellipse_114" data-name="Ellipse 114" cx="24" cy="24" r="24" transform="translate(98 304)" fill="#f1f5ff"/>
    </g>
    <g id="noun_Refill_wallet_436890" data-name="noun_Refill wallet_436890" transform="translate(101.109 300.3)">
      <g id="Group_365" data-name="Group 365" transform="translate(10.891 24.748)">
        <g id="Group_362" data-name="Group 362" transform="translate(0 0)">
          <path id="Path_2940" data-name="Path 2940" d="M33.347,45.655c-.241-1.666-3.6-2.988-7.714-2.988s-7.472,1.322-7.714,2.988c-.009-.064-.023,7.437-.023,7.437h0v3.559h0c0,1.756,3.464,3.178,7.737,3.178s7.737-1.423,7.737-3.178h0V49.025S33.356,45.591,33.347,45.655ZM25.633,52.2c-3.454,0-6.378-.93-7.372-2.214V46.96a6.471,6.471,0,0,0,2.434,1.332,15.674,15.674,0,0,0,4.938.732,15.68,15.68,0,0,0,4.937-.731A6.471,6.471,0,0,0,33,46.96v3.029C32.01,51.272,29.087,52.2,25.633,52.2ZM33,50.519v2.573c0,1.359-2.962,2.813-7.372,2.813s-7.37-1.454-7.372-2.812V50.519c1.267,1.219,4.058,2.048,7.372,2.048S31.737,51.739,33,50.519Zm-7.372-7.487c4.41,0,7.372,1.455,7.372,2.814,0,.677-.736,1.377-2.018,1.909a15.042,15.042,0,0,1-5.354.887,15.044,15.044,0,0,1-5.354-.887c-1.282-.532-2.018-1.233-2.018-1.909C18.261,44.487,21.223,43.032,25.633,43.032Zm0,16.432c-4.41,0-7.372-1.455-7.372-2.813V54.056c.995,1.283,3.918,2.213,7.372,2.213s6.378-.93,7.372-2.214v2.6C33.005,58.01,30.043,59.464,25.633,59.464Z" transform="translate(-17.896 -42.667)" fill="#346fc8" stroke="#346fc8" stroke-width="0.8"/>
        </g>
        <g id="Group_363" data-name="Group 363" transform="translate(3.127 1.413)">
          <path id="Path_2941" data-name="Path 2941" d="M31.373,46.389c-.215-.011-.434-.018-.658-.018-2.552,0-4.62.708-4.62,1.582a.631.631,0,0,0,.11.34C26.983,47.269,28.969,46.51,31.373,46.389Z" transform="translate(-26.095 -46.371)" fill="#346fc8" stroke="#346fc8" stroke-width="0.8"/>
        </g>
        <g id="Group_364" data-name="Group 364" transform="translate(8.405 3.32)">
          <path id="Path_2942" data-name="Path 2942" d="M40.363,52.621c1.659,0,3-.461,3-1.029a.409.409,0,0,0-.072-.221,4.721,4.721,0,0,1-3.361,1.238C40.075,52.617,40.217,52.621,40.363,52.621Z" transform="translate(-39.935 -51.371)" fill="#346fc8" stroke="#346fc8" stroke-width="0.8"/>
        </g>
      </g>
      <path id="Path_2943" data-name="Path 2943" d="M47.191,13.7a9.325,9.325,0,0,0-9.3,8.643h.381a8.944,8.944,0,1,1,10.149,9.534v.389A9.324,9.324,0,0,0,47.191,13.7Z" transform="translate(-19.375)" fill="#346fc8" stroke="#346fc8" stroke-width="0.8"/>
      <path id="Path_2944" data-name="Path 2944" d="M56.669,28.487H56.13v3.374H52.756v.54h3.373v3.373h.54V32.4h3.374v-.54H56.669Z" transform="translate(-28.57 -9.147)" fill="#346fc8" stroke="#346fc8" stroke-width="0.8"/>
    </g>
  </g>
</svg>
