<svg xmlns="http://www.w3.org/2000/svg" width="48" height="48" viewBox="0 0 48 48">
  <g id="profile_activty" transform="translate(-98 -304)">
    <g id="Group_351" data-name="Group 351">
      <circle id="Ellipse_114" data-name="Ellipse 114" cx="24" cy="24" r="24" transform="translate(98 304)" fill="#f1f5ff"/>
    </g>
    <g id="noun_activity_1880485" transform="translate(104.5 312.641)">
      <path id="Path_2936" data-name="Path 2936" d="M30.093,15.9a1.638,1.638,0,0,0-1.407.831H26.3a.827.827,0,0,1-.787-.568l-.592-1.777a1.663,1.663,0,0,0-3.105-.129L18.634,21.7,15.057,8.584A1.645,1.645,0,0,0,13.466,7.36h-.013a1.648,1.648,0,0,0-1.6,1.206L9.694,16.134a.835.835,0,0,1-.8.6H6.569A1.638,1.638,0,0,0,5.162,15.9a1.662,1.662,0,1,0,0,3.324A1.639,1.639,0,0,0,6.569,18.4H8.9a2.5,2.5,0,0,0,2.4-1.808l2.162-7.567L17.03,22.133a1.642,1.642,0,0,0,1.487,1.222c.041,0,.081,0,.122,0a1.642,1.642,0,0,0,1.522-1.007l3.186-7.436.592,1.776A2.489,2.489,0,0,0,26.3,18.4h2.381a1.639,1.639,0,0,0,1.407.831,1.662,1.662,0,1,0,0-3.324Z" fill="#346fc8" stroke="#f1f5ff" stroke-width="0.3"/>
    </g>
  </g>
</svg>
