<svg xmlns="http://www.w3.org/2000/svg" width="48" height="48" viewBox="0 0 48 48">
  <g id="profile_share" transform="translate(-98 -304)">
    <g id="Group_351" data-name="Group 351" transform="translate(0)">
      <circle id="Ellipse_114" data-name="Ellipse 114" cx="24" cy="24" r="24" transform="translate(98 304)" fill="#f1f5ff"/>
    </g>
    <g id="noun_Share_346763" transform="translate(103.751 298.2)">
      <path id="Path_2939" data-name="Path 2939" d="M32.825,33.566a4.747,4.747,0,0,0-3.674,1.7l-6.864-3.553a4.758,4.758,0,0,0,.485-2.14,5.361,5.361,0,0,0-.485-2.14l6.864-3.553a4.809,4.809,0,0,0,3.674,1.7,4.886,4.886,0,0,0,0-9.771,4.972,4.972,0,0,0-4.886,4.966,5.139,5.139,0,0,0,.323,1.777l-6.985,3.594a4.821,4.821,0,0,0-3.432-1.413,4.886,4.886,0,0,0,.04,9.771,4.821,4.821,0,0,0,3.432-1.413L28.3,36.675a5.139,5.139,0,0,0-.323,1.777,4.886,4.886,0,1,0,4.845-4.886Zm0-16.03a3.271,3.271,0,1,1-3.271,3.23A3.248,3.248,0,0,1,32.825,17.536ZM17.886,32.879a3.271,3.271,0,1,1,3.271-3.271A3.283,3.283,0,0,1,17.886,32.879Zm14.939,8.8A3.271,3.271,0,1,1,36.1,38.411,3.283,3.283,0,0,1,32.825,41.682Z" transform="translate(-7.751)" fill="#346fc8"/>
    </g>
  </g>
</svg>
