<svg xmlns="http://www.w3.org/2000/svg" width="48" height="48" viewBox="0 0 48 48">
  <g id="profile_profile" transform="translate(-98 -304)">
    <g id="Group_351" data-name="Group 351">
      <circle id="Ellipse_114" data-name="Ellipse 114" cx="24" cy="24" r="24" transform="translate(98 304)" fill="#f1f5ff"/>
    </g>
    <g id="noun_me_3378285" transform="translate(107.957 313.822)">
      <path id="Path_2934" data-name="Path 2934" d="M19.392,17.8a.447.447,0,0,0-.159-.619l-.051-.051c-.154-.092-.311-.181-.463-.262a9.271,9.271,0,0,0-1.885-.731,5.3,5.3,0,1,0-4.793,0A9.238,9.238,0,0,0,5.26,24.2a13.414,13.414,0,1,1,22.593-9.759,13.574,13.574,0,0,1-.338,3.01.447.447,0,1,0,.87.2A14.288,14.288,0,1,0,17.635,28.4a.447.447,0,1,0-.2-.872,13.618,13.618,0,0,1-3,.335,13.34,13.34,0,0,1-8.323-2.906A8.326,8.326,0,0,1,18.3,17.67c.141.074.282.152.42.224l.063.038A.447.447,0,0,0,19.392,17.8Zm-9.361-6.383a4.409,4.409,0,1,1,4.409,4.409A4.409,4.409,0,0,1,10.031,11.417Z" transform="translate(-0.127 0)" fill="#346fc8" stroke="#346fc8" stroke-width="0.3"/>
      <path id="Path_2935" data-name="Path 2935" d="M85.527,84.894H92.5a.447.447,0,1,0,0-.894H84.447a.447.447,0,0,0-.447.447V92.5a.447.447,0,1,0,.894,0V85.527l8.18,8.178a.447.447,0,0,0,.63-.63Z" transform="translate(-65.216 -65.082)" fill="#346fc8" stroke="#346fc8" stroke-width="0.3"/>
    </g>
  </g>
</svg>
