<svg xmlns="http://www.w3.org/2000/svg" width="48" height="48" viewBox="0 0 48 48">
  <g id="profile_leaderboard" transform="translate(-98 -304)">
    <g id="Group_351" data-name="Group 351">
      <circle id="Ellipse_114" data-name="Ellipse 114" cx="24" cy="24" r="24" transform="translate(98 304)" fill="#f1f5ff"/>
    </g>
    <g id="noun_Leaderboards_2181837" transform="translate(187 310.471)">
      <path id="Path_2933" data-name="Path 2933" d="M59.4,87.016V77.9a.48.48,0,0,1,.48-.48h8.155V74.064a.48.48,0,0,1,.48-.48h8.635a.48.48,0,0,1,.48.48V80.3h8.155a.48.48,0,0,1,.48.48v6.236H88.18a.48.48,0,0,1,0,.959H57.48a.48.48,0,0,1,0-.959Zm9.594-12.472V87.016h7.675V74.544Zm-8.635,3.838v8.635h7.675V78.382ZM77.627,81.26v5.756H85.3V81.26ZM70.376,67.5a.687.687,0,0,1-1.04-.755l.469-2.732L67.82,62.079a.687.687,0,0,1,.4-1.222l2.743-.4,1.227-2.486a.687.687,0,0,1,1.285,0L74.7,60.458l2.743.4a.687.687,0,0,1,.4,1.222l-1.985,1.935.469,2.732a.687.687,0,0,1-1.04.755l-2.454-1.29Zm2.23-2.256a.479.479,0,0,1,.446,0l2.241,1.178-.428-2.5A.48.48,0,0,1,75,63.5l1.813-1.767-2.506-.364a.48.48,0,0,1-.361-.262L72.83,58.839l-1.121,2.271a.48.48,0,0,1-.361.262l-2.506.364L70.656,63.5a.48.48,0,0,1,.138.425l-.428,2.5Z" transform="translate(-138 -55)" fill="#346fc8" stroke="#346fc8" stroke-width="0.2"/>
    </g>
  </g>
</svg>
