<svg xmlns="http://www.w3.org/2000/svg" width="48" height="48" viewBox="0 0 48 48">
  <g id="profile_analysis" transform="translate(-98 -304)">
    <g id="Group_351" data-name="Group 351">
      <circle id="Ellipse_114" data-name="Ellipse 114" cx="24" cy="24" r="24" transform="translate(98 304)" fill="#f1f5ff"/>
    </g>
    <g id="noun_Seo_analyzer_526821" data-name="noun_Seo analyzer_526821" transform="translate(106 311)">
      <g id="Group_366" data-name="Group 366" transform="translate(2.122 4)">
        <path id="Path_2945" data-name="Path 2945" d="M78.132,95.881a1.727,1.727,0,0,0,1.436-2.693l2.978-5.281a.168.168,0,0,0,.048.016,1.842,1.842,0,0,0,.3.106l.048.016a1.785,1.785,0,0,0,.38.042,1.76,1.76,0,0,0,.412-.053.67.67,0,0,0,.1-.032,1.488,1.488,0,0,0,.253-.1c.021-.011.048-.016.069-.026l1.964,2.667a2.122,2.122,0,0,0-.127.243c-.005.011-.011.026-.016.037a2.332,2.332,0,0,0-.079.253c-.005.026-.011.048-.016.074a1.521,1.521,0,0,0-.032.312,1.732,1.732,0,0,0,3.464,0,1.458,1.458,0,0,0-.032-.3c-.005-.026-.011-.058-.016-.084a1.849,1.849,0,0,0-.074-.243,1,1,0,0,0-.058-.132c-.005-.016-.016-.032-.021-.048L92.9,86.09a1.679,1.679,0,0,0,.745.174,1.732,1.732,0,0,0,0-3.464A1.756,1.756,0,0,0,91.9,84.553a1.735,1.735,0,0,0,.322,1L88.514,90.03a1.689,1.689,0,0,0-1.759-.063l-1.97-2.677a1.728,1.728,0,1,0-2.9.037L78.9,92.612a1.715,1.715,0,0,0-.771-.19,1.729,1.729,0,1,0,0,3.459Zm15.5-12.194a.866.866,0,1,1-.866.866A.867.867,0,0,1,93.637,83.687Zm-5.46,7.166.058.069a.854.854,0,0,1,.206.554.866.866,0,0,1-1.732,0,.972.972,0,0,1,.016-.174.04.04,0,0,1,.011-.026.551.551,0,0,1,.042-.132c0-.005.005-.005.005-.011a.861.861,0,0,1,.792-.518A.837.837,0,0,1,88.176,90.853Zm-4.848-5.36a.863.863,0,0,1,.586,1.5A.882.882,0,0,1,82.758,87a.86.86,0,0,1,.57-1.505Zm-5.2,7.789a.866.866,0,1,1-.866.866A.867.867,0,0,1,78.132,93.283Z" transform="translate(-72.471 -78.533)" fill="#346fc8" stroke="#346fc8" stroke-width="0.2"/>
        <path id="Path_2946" data-name="Path 2946" d="M27.095,2H3.732a1.732,1.732,0,0,0,0,3.464V19.744a1.3,1.3,0,0,0,1.3,1.3H9.193l-2.6,7.784h2.64l.723-2.165H20.874l.723,2.165h2.64l-2.6-7.789H25.8a1.3,1.3,0,0,0,1.3-1.3V5.459A1.729,1.729,0,1,0,27.095,2ZM23.034,27.961h-.819L21.492,25.8H9.335l-.723,2.165H7.793L10.1,21.038h.819L9.911,24.069H20.921l-1.009-3.031h.819ZM19.717,23.2H11.109l.723-2.165H19Zm6.511-3.464a.435.435,0,0,1-.433.433H5.031a.435.435,0,0,1-.433-.433V5.459H26.234V19.738ZM27.095,4.6H3.732a.866.866,0,1,1,0-1.732H27.1A.866.866,0,1,1,27.095,4.6Z" transform="translate(-2 -2)" fill="#346fc8" stroke="#346fc8" stroke-width="0.2"/>
      </g>
    </g>
  </g>
</svg>
