<svg xmlns="http://www.w3.org/2000/svg" width="48" height="48" viewBox="0 0 48 48">
  <g id="profile_saved" transform="translate(-98 -303)">
    <g id="Group_351" data-name="Group 351" transform="translate(0 -1)">
      <circle id="Ellipse_114" data-name="Ellipse 114" cx="24" cy="24" r="24" transform="translate(98 304)" fill="#f1f5ff"/>
    </g>
    <g id="noun_bookmark_3490881" transform="translate(103.83 310)">
      <path id="Path_2937" data-name="Path 2937" d="M21.267,14.96V18.2H18.03v1.3h3.237v3.237h1.3V19.5h3.237V18.2H22.57V14.96Z" transform="translate(-3.787 -3.473)" fill="#346fc8"/>
      <path id="Path_2938" data-name="Path 2938" d="M25.843,5H13.657V6.3H25.843A1.954,1.954,0,0,1,27.8,8.257V26.494a1.954,1.954,0,0,1-2.788,1.752l-6.878-3.322L11.26,28.252a1.954,1.954,0,0,1-2.788-1.759V5.651H7.17V26.494a3.252,3.252,0,0,0,4.67,2.931l6.292-3.055,6.3,3.048a3.257,3.257,0,0,0,4.657-2.924V8.257A3.257,3.257,0,0,0,25.843,5Z" fill="#346fc8" stroke="#707070" stroke-width="0.2"/>
    </g>
  </g>
</svg>
